<?xml version="1.0" standalone="no"?>
<!DOCTYPE svg PUBLIC "-//W3C//DTD SVG 20010904//EN"
 "http://www.w3.org/TR/2001/REC-SVG-20010904/DTD/svg10.dtd">
<svg version="1.0" xmlns="http://www.w3.org/2000/svg"
 width="3681.000000pt" height="3681.000000pt" viewBox="0 0 3681.000000 3681.000000"
 preserveAspectRatio="xMidYMid meet">
<metadata>
Created by potrace 1.11, written by Peter Selinger 2001-2013
</metadata>
<g transform="translate(0.000000,3681.000000) scale(0.100000,-0.100000)"
fill="#000000" stroke="none">
<path d="M0 18405 l0 -18405 18405 0 18405 0 0 18405 0 18405 -18405 0 -18405
0 0 -18405z m19320 14280 c555 -52 944 -130 1525 -306 446 -135 986 -380 1438
-653 234 -141 312 -192 509 -333 509 -366 1072 -915 1449 -1413 129 -171 319
-441 319 -454 0 -2 22 -36 48 -77 167 -254 386 -679 534 -1034 12 -27 27 -63
34 -80 44 -105 184 -519 222 -655 187 -682 262 -1229 262 -1910 0 -600 -63
-1131 -199 -1670 -61 -240 -158 -566 -210 -700 -50 -133 -157 -392 -204 -495
-66 -147 -607 -1224 -742 -1480 -487 -919 -1004 -1791 -1650 -2782 -33 -51
-91 -141 -130 -200 -38 -60 -133 -205 -211 -323 -619 -944 -849 -1340 -987
-1705 -77 -203 -114 -399 -102 -540 33 -412 132 -744 351 -1183 122 -245 164
-320 514 -917 67 -115 130 -223 140 -240 65 -114 166 -295 210 -375 68 -126
319 -635 360 -730 18 -41 43 -99 56 -128 42 -92 173 -429 229 -586 397 -1122
606 -2395 635 -3871 8 -421 -3 -1208 -19 -1370 -6 -55 -11 -136 -11 -180 -1
-168 -79 -407 -194 -590 -405 -648 -1384 -1164 -2681 -1414 -346 -67 -652
-106 -1070 -137 -295 -22 -1008 -22 -1325 0 -129 9 -242 19 -250 21 -8 2 -69
9 -135 15 -150 13 -411 49 -565 76 -252 46 -408 79 -620 131 -232 57 -616 173
-740 223 -25 11 -76 31 -115 46 -561 215 -1037 501 -1364 819 -194 189 -300
328 -392 514 -62 127 -96 232 -119 371 -56 335 -53 1269 5 1945 20 227 61 601
80 725 8 52 26 172 40 265 34 227 106 622 144 785 6 25 20 90 31 145 135 631
401 1518 632 2110 128 328 183 454 206 471 8 6 12 16 8 22 -6 11 12 17 37 13
4 0 7 5 7 12 0 8 10 22 22 33 19 17 21 17 15 2 -4 -10 -3 -18 2 -18 5 0 11 9
14 21 4 13 10 18 18 13 7 -4 18 1 26 11 7 11 13 15 13 11 0 -5 7 -3 15 4 8 7
24 10 35 7 11 -3 18 -2 15 3 -5 7 31 23 48 21 4 -1 7 4 7 9 0 13 -2 13 -47 -4
-104 -39 -190 -48 -407 -43 -264 7 -424 36 -626 117 -74 29 -225 120 -279 168
l-45 39 75 43 c109 63 289 183 388 258 411 312 682 650 835 1042 39 102 86
252 86 279 0 5 -28 -7 -62 -28 -159 -97 -369 -181 -566 -228 -87 -20 -141 -26
-292 -30 -163 -5 -200 -3 -299 16 -144 28 -251 62 -370 117 -86 40 -253 143
-266 163 -3 5 27 60 66 123 227 363 411 893 499 1428 106 654 90 1417 -46
2165 -127 696 -343 1395 -665 2151 -195 458 -469 1012 -596 1204 -406 613
-742 1372 -918 2070 -14 58 -32 130 -40 160 -36 142 -93 454 -115 625 -6 50
-15 122 -21 160 -53 382 -53 1149 1 1591 51 424 152 910 261 1252 80 251 132
395 224 617 87 213 297 636 404 815 34 58 68 114 74 125 26 44 239 365 288
435 356 506 890 1057 1434 1478 383 297 880 593 1370 817 195 89 554 224 770
290 50 15 117 36 150 46 426 131 1115 243 1615 263 181 7 743 -5 900 -19z"/>
<path d="M19266 32152 l-60 -7 55 -42 c77 -60 313 -302 391 -403 251 -326 442
-720 523 -1085 57 -253 70 -374 70 -655 0 -248 -6 -332 -41 -544 -8 -48 -14
-90 -12 -91 2 -2 64 41 138 96 288 214 516 356 790 493 601 300 1173 419 1736
361 146 -15 281 -40 397 -72 32 -9 60 -14 63 -11 2 3 -26 43 -63 89 -126 159
-263 307 -461 500 -325 318 -668 570 -1073 789 -670 362 -1442 565 -2219 584
-96 2 -202 1 -234 -2z m1743 -1342 c3 -135 38 -152 140 -65 36 30 67 53 69 50
2 -2 -21 -34 -52 -71 -87 -101 -75 -130 54 -134 98 -3 103 -16 10 -30 -131
-20 -136 -32 -59 -134 28 -37 49 -70 46 -72 -3 -3 -30 17 -60 45 -72 64 -92
75 -116 61 -15 -7 -21 -25 -26 -67 -3 -32 -9 -76 -13 -98 -7 -37 -9 -33 -16
45 -4 46 -12 93 -17 102 -17 32 -56 21 -124 -37 -36 -30 -68 -55 -71 -55 -3 0
17 28 45 63 98 118 94 133 -43 147 -49 5 -91 11 -94 15 -3 3 -1 5 4 6 168 11
213 26 200 66 -3 10 -31 48 -60 83 -30 36 -53 66 -51 68 2 2 34 -21 71 -52 71
-59 106 -69 123 -37 6 10 13 56 17 102 8 87 22 86 23 -1z"/>
<path d="M17345 31924 c-488 -18 -1089 -181 -1603 -434 -676 -332 -1236 -770
-1703 -1330 -165 -198 -344 -474 -462 -710 -51 -102 -99 -201 -106 -220 -98
-255 -144 -418 -178 -620 -24 -147 -24 -479 0 -605 61 -315 179 -550 382 -763
261 -274 596 -435 1058 -509 176 -28 639 -25 842 6 493 74 924 214 1388 450
1028 525 1859 1388 2210 2298 107 276 156 509 164 784 6 204 -4 314 -47 482
-161 635 -686 1051 -1450 1151 -119 15 -356 25 -495 20z m45 -429 c445 -42
755 -237 895 -563 111 -258 97 -588 -42 -952 -26 -69 -149 -321 -185 -380 -36
-57 -154 -235 -171 -256 -8 -10 -48 -59 -87 -109 -76 -96 -307 -352 -327 -363
-6 -4 -42 -37 -80 -73 -37 -36 -99 -92 -138 -124 -38 -32 -75 -64 -82 -69 -95
-83 -393 -294 -523 -371 -182 -107 -235 -135 -371 -202 -363 -179 -849 -331
-1144 -357 -367 -33 -648 -5 -867 85 -148 61 -218 107 -328 218 -92 93 -111
118 -153 203 -141 289 -131 631 30 1038 245 620 884 1301 1638 1746 184 109
480 252 670 324 33 12 76 29 95 36 186 72 522 149 740 168 197 18 250 18 430
1z"/>
<path d="M22425 29636 c-561 -100 -1040 -400 -1449 -911 -415 -517 -721 -1312
-806 -2095 -5 -52 -12 -106 -15 -120 -12 -59 -35 -498 -35 -660 0 -598 87
-1292 271 -2155 68 -318 185 -785 249 -990 112 -361 216 -661 294 -852 58
-140 76 -182 119 -278 93 -206 282 -565 305 -579 4 -2 7 44 7 102 1 125 18
184 84 281 90 132 244 214 402 214 129 0 243 -44 337 -128 67 -60 106 -117
139 -202 22 -58 26 -83 26 -168 0 -115 -20 -185 -79 -274 -20 -29 -30 -50 -22
-46 49 29 218 152 468 340 288 218 618 519 875 801 697 762 1117 1670 1274
2759 104 718 112 1399 25 1980 -219 1448 -915 2620 -1742 2931 -35 14 -110 35
-168 49 -145 34 -367 34 -559 1z m550 -707 c474 -78 991 -639 1266 -1373 17
-45 37 -99 45 -120 40 -106 105 -329 137 -471 68 -299 103 -551 118 -857 38
-741 -117 -1444 -419 -1898 -172 -259 -367 -416 -612 -492 -65 -20 -96 -23
-230 -23 -143 0 -162 2 -245 29 -339 107 -642 374 -904 794 -273 437 -467
1019 -546 1632 -58 456 -43 977 41 1385 43 209 125 473 187 600 120 247 197
364 327 499 244 253 513 348 835 295z"/>
<path d="M19937 29189 c-101 -53 -126 -199 -50 -290 68 -80 219 -79 287 1 51
61 57 158 15 227 -48 77 -168 107 -252 62z"/>
<path d="M19800 28627 c-545 -836 -1410 -1589 -2510 -2187 -122 -66 -536 -270
-617 -304 -35 -14 -86 -37 -115 -50 -178 -81 -413 -172 -662 -256 -181 -61
-181 -62 -61 -80 117 -18 400 -78 590 -124 844 -207 1613 -519 2205 -894 360
-229 670 -494 897 -769 47 -57 86 -103 88 -103 1 0 -15 46 -37 103 -149 389
-244 794 -300 1282 -18 162 -21 245 -21 565 0 423 16 632 78 1027 90 565 261
1177 494 1762 34 85 60 155 59 156 -2 1 -41 -56 -88 -128z"/>
<path d="M12646 27058 c-16 -68 -35 -148 -42 -178 -25 -109 -73 -419 -91 -590
-26 -256 -24 -675 5 -907 51 -404 139 -703 304 -1027 59 -115 185 -317 207
-330 7 -5 11 10 11 46 0 65 39 239 74 333 68 179 198 368 375 545 241 241 526
434 926 626 158 76 369 164 394 164 40 0 -10 13 -140 35 -580 102 -1101 344
-1472 684 -204 187 -353 387 -474 634 -23 48 -44 87 -45 87 -2 0 -16 -55 -32
-122z m693 -1103 c8 -104 12 -122 31 -137 12 -10 30 -18 40 -18 10 0 67 40
127 89 59 50 109 88 112 86 2 -3 -18 -30 -45 -61 -98 -113 -124 -149 -124
-175 0 -57 29 -67 235 -85 44 -4 76 -8 70 -10 -5 -2 -66 -12 -134 -23 -104
-15 -128 -22 -143 -41 -10 -12 -18 -28 -18 -36 0 -7 36 -61 80 -120 44 -59 79
-109 77 -111 -3 -2 -47 32 -98 75 -115 96 -130 105 -162 93 -32 -13 -44 -51
-52 -176 -10 -133 -21 -161 -29 -70 -15 167 -25 219 -42 232 -38 28 -67 15
-173 -73 -56 -48 -104 -85 -106 -83 -2 3 36 53 86 113 49 60 89 117 89 126 0
10 -8 28 -17 39 -16 19 -36 24 -151 35 -73 7 -135 15 -138 18 -5 5 37 11 184
24 81 7 122 30 122 69 0 24 -11 39 -117 162 -95 110 -86 109 49 -4 103 -85
122 -96 149 -88 33 11 48 46 54 130 12 160 17 193 26 165 4 -14 12 -79 18
-145z"/>
<path d="M15225 25942 c-69 -32 -115 -106 -115 -182 0 -34 32 -100 61 -127 32
-29 91 -53 132 -53 49 0 128 44 157 87 35 51 36 153 2 201 -60 84 -154 113
-237 74z"/>
<path d="M15510 24714 c-402 -45 -641 -106 -938 -242 -404 -184 -713 -470
-886 -817 -132 -267 -170 -593 -112 -960 13 -88 34 -230 46 -315 12 -85 27
-182 35 -215 110 -478 210 -766 400 -1150 503 -1018 1359 -1879 2541 -2555
145 -83 625 -328 734 -374 25 -11 70 -31 100 -44 313 -140 887 -353 1205 -447
361 -106 559 -160 531 -142 -137 87 -220 216 -232 360 -18 214 108 410 306
477 123 42 227 35 346 -21 114 -54 197 -150 240 -277 16 -46 24 -59 28 -46 15
48 89 516 116 735 80 656 81 1426 0 1979 -113 781 -369 1473 -763 2065 -401
604 -998 1150 -1669 1529 -400 225 -851 377 -1308 442 -109 15 -629 28 -720
18z m-210 -904 c504 -73 1052 -367 1565 -840 464 -428 820 -918 1075 -1480 29
-63 58 -133 65 -155 7 -22 29 -85 48 -140 42 -121 79 -261 109 -415 19 -98 23
-147 23 -340 0 -203 -2 -235 -24 -325 -49 -208 -129 -362 -251 -486 -180 -183
-395 -264 -700 -264 -239 1 -429 43 -729 162 -36 14 -72 29 -80 33 -9 5 -54
28 -101 51 -47 23 -92 46 -100 50 -8 4 -69 40 -135 80 -108 66 -148 93 -279
186 -293 210 -633 546 -902 893 -274 354 -507 780 -635 1165 -228 681 -181
1240 130 1569 133 139 292 221 501 256 140 24 257 24 420 0z"/>
<path d="M19766 23390 c-40 -36 -51 -70 -36 -116 16 -48 63 -84 110 -84 48 0
104 45 113 89 23 112 -102 186 -187 111z"/>
<path d="M20018 22591 c-29 -26 -33 -36 -33 -80 0 -41 5 -55 29 -80 35 -36 74
-46 121 -31 51 17 75 53 75 112 0 41 -5 53 -30 78 -26 25 -39 30 -80 30 -41 0
-56 -5 -82 -29z"/>
<path d="M20349 21871 c-71 -22 -119 -88 -119 -163 0 -122 151 -203 251 -135
42 28 79 91 79 136 0 50 -36 116 -74 139 -40 24 -101 34 -137 23z"/>
<path d="M20576 20993 c-14 -126 -18 -1029 -7 -1413 12 -415 40 -860 71 -1125
5 -44 17 -143 25 -220 51 -451 142 -921 245 -1265 53 -176 44 -161 64 -116 9
21 16 42 16 47 0 18 113 296 185 456 362 800 1124 2017 2018 3222 70 95 127
175 125 177 -2 2 -74 -36 -159 -84 -687 -388 -1307 -958 -1725 -1584 -109
-163 -124 -177 -124 -116 0 34 -67 334 -115 513 -124 467 -349 1078 -528 1434
-34 69 -67 126 -73 128 -7 2 -14 -19 -18 -54z"/>
<path d="M14405 19500 c4 -14 38 -106 75 -205 217 -577 331 -1059 387 -1644
24 -244 24 -787 0 -1034 -36 -378 -93 -714 -178 -1046 -22 -85 -37 -156 -34
-159 8 -9 292 16 381 34 343 65 647 219 897 454 94 89 207 218 267 307 19 29
38 53 42 53 23 1 75 -247 88 -418 43 -568 -191 -1172 -689 -1782 -127 -156
-321 -360 -466 -490 -71 -63 -145 -130 -164 -148 l-36 -33 110 6 c295 17 530
59 810 146 799 249 1463 775 1939 1537 77 125 219 382 230 420 9 27 15 27 63
0 709 -403 1327 -931 1889 -1613 262 -317 548 -733 765 -1110 178 -311 364
-684 501 -1010 427 -1007 677 -2129 678 -3037 1 -752 -235 -1550 -627 -2126
-158 -233 -387 -484 -568 -623 -408 -314 -856 -469 -1355 -469 -280 0 -652 65
-860 149 -176 72 -365 224 -455 366 -210 331 -227 729 -45 1088 95 187 251
332 451 419 150 64 228 82 359 82 121 0 174 -11 272 -60 55 -28 167 -130 209
-190 99 -144 159 -339 175 -569 4 -55 11 -95 17 -95 22 0 106 101 135 161 84
176 86 472 6 685 -80 214 -239 391 -441 493 -180 90 -346 125 -593 125 -200 0
-305 -15 -467 -69 -123 -41 -201 -79 -313 -153 -85 -57 -236 -198 -301 -282
-141 -183 -241 -409 -296 -669 -25 -116 -27 -145 -27 -356 0 -212 2 -240 27
-354 69 -316 185 -571 365 -801 64 -82 256 -266 342 -330 480 -352 1143 -492
2023 -425 298 23 702 84 899 135 443 117 951 430 1308 808 470 497 769 1104
906 1840 57 305 74 520 74 923 0 315 -3 386 -31 664 -29 293 -111 791 -184
1115 -338 1502 -998 2842 -1994 4050 -233 282 -457 527 -761 831 -435 435
-796 752 -1390 1220 -208 164 -648 488 -910 670 -36 25 -126 88 -200 139 -74
52 -359 243 -632 425 -1456 967 -1400 929 -1719 1160 -343 249 -574 441 -812
675 -76 74 -140 137 -144 140 -3 3 -2 -6 2 -20z m8144 -10660 c15 -28 42 -22
94 22 29 25 59 48 67 53 18 11 8 -3 -52 -74 -61 -70 -50 -94 45 -106 71 -9 75
-25 6 -25 -98 0 -114 -34 -51 -109 21 -25 42 -53 47 -61 9 -17 5 -14 -68 48
-39 34 -81 42 -90 18 -3 -8 -9 -46 -13 -85 -3 -39 -10 -69 -14 -66 -4 2 -10
37 -13 77 -10 114 -32 119 -131 31 -27 -24 -51 -42 -53 -39 -3 2 16 31 41 63
58 73 60 98 9 112 -21 6 -49 11 -63 12 -14 0 -34 4 -45 8 -13 5 3 10 52 14 39
4 78 10 87 13 28 11 17 48 -33 109 -27 33 -48 61 -46 63 2 2 31 -19 65 -47 91
-76 106 -70 116 43 9 93 17 98 26 16 5 -41 13 -82 17 -90z m-102 -741 c18 -11
40 -34 48 -49 22 -42 19 -118 -5 -158 -21 -34 -87 -72 -125 -72 -38 0 -104 38
-125 72 -26 43 -27 122 -1 162 44 67 139 88 208 45z m-130 -695 c26 -15 53
-42 69 -70 23 -39 26 -53 22 -113 -3 -55 -9 -75 -31 -104 -45 -59 -84 -81
-152 -85 -123 -8 -215 77 -215 199 0 163 164 255 307 173z m-309 -733 c61 -31
107 -82 131 -146 51 -136 -3 -275 -134 -344 -59 -31 -179 -30 -244 4 -116 58
-172 199 -132 334 18 61 102 144 167 165 64 21 157 15 212 -13z"/>
<path d="M20237 18065 c-3 -16 -9 -79 -12 -140 -7 -128 -19 -319 -40 -640 -8
-126 -19 -297 -25 -380 -5 -82 -13 -205 -16 -272 -4 -68 -9 -123 -12 -123 -2
0 -21 5 -41 10 -20 6 -220 55 -446 110 -225 55 -443 109 -484 120 -41 11 -70
16 -65 11 5 -4 90 -68 189 -141 581 -430 1140 -924 1484 -1313 62 -70 115
-126 118 -124 2 3 -1 24 -6 48 -6 24 -38 170 -71 324 -32 154 -80 372 -105
485 -26 113 -59 264 -75 335 -16 72 -70 310 -120 530 -126 552 -218 960 -244
1085 -19 85 -24 99 -29 75z"/>
<path d="M18223 14988 c-6 -7 -18 -30 -27 -51 -19 -48 -114 -209 -179 -307
-199 -296 -537 -635 -877 -876 -407 -290 -939 -550 -1475 -721 -30 -9 -30 -11
-37 -99 -4 -49 -15 -152 -23 -229 -8 -77 -26 -246 -40 -375 -14 -129 -30 -281
-36 -336 l-11 -102 107 -328 c59 -181 133 -412 166 -514 33 -102 65 -198 71
-213 l11 -28 41 39 c112 106 237 190 401 268 209 100 448 151 662 141 l112 -5
6 56 c21 181 93 416 178 584 153 301 360 497 667 631 148 65 294 101 513 128
145 17 516 6 682 -21 134 -22 360 -71 406 -89 l27 -10 6 157 c9 200 10 987 2
1071 -7 73 -9 75 -152 246 -246 294 -670 662 -1047 909 -137 89 -140 91 -154
74z"/>
<path d="M19878 13178 c6 -319 -25 -1163 -53 -1483 -43 -475 -87 -790 -150
-1061 -29 -123 -32 -127 -100 -137 -64 -10 -275 -73 -376 -112 -378 -146 -721
-404 -958 -719 -111 -148 -247 -386 -267 -468 -6 -28 -5 -28 41 -28 73 0 344
-38 500 -70 953 -195 1567 -631 1763 -1250 89 -280 100 -586 32 -855 -121
-482 -507 -810 -1105 -940 -66 -15 -159 -29 -207 -32 -49 -3 -88 -9 -88 -13 0
-8 80 -33 185 -57 65 -15 123 -18 310 -18 200 0 245 3 350 24 624 122 1130
503 1438 1082 243 458 360 1089 327 1768 -6 124 -13 242 -15 261 -2 19 -6 73
-10 120 -23 311 -126 878 -230 1260 -213 785 -573 1622 -1013 2355 -102 169
-232 369 -323 496 l-54 75 3 -198z"/>
<path d="M15555 12990 c3 -5 8 -10 11 -10 2 0 4 5 4 10 0 6 -5 10 -11 10 -5 0
-7 -4 -4 -10z"/>
<path d="M18317 12280 c-188 -34 -406 -158 -523 -297 -227 -269 -285 -623
-154 -949 145 -363 547 -601 933 -555 450 55 782 400 813 845 27 379 -197 749
-541 893 -126 53 -185 65 -335 69 -80 1 -166 -1 -193 -6z"/>
<path d="M15448 11295 c-19 -32 -110 -381 -162 -625 -85 -399 -132 -724 -178
-1250 -17 -191 -17 -853 0 -1025 25 -257 34 -333 59 -495 101 -661 314 -1257
640 -1793 269 -441 614 -799 1005 -1041 320 -197 650 -311 993 -341 l70 -6
-55 37 c-173 117 -376 325 -527 539 -125 179 -237 410 -302 625 -113 375 -125
843 -31 1222 142 569 525 979 1140 1221 251 98 638 184 849 188 31 1 67 4 81
8 23 7 20 10 -40 43 -185 104 -440 185 -710 225 -174 25 -549 25 -745 0 -351
-47 -699 -145 -1053 -298 -62 -27 -116 -49 -121 -49 -14 0 -158 315 -263 580
-164 408 -288 793 -441 1360 -54 198 -126 510 -181 775 -12 60 -25 105 -28
100z m101 -2455 c15 -27 41 -22 87 17 99 82 107 82 34 -4 -76 -88 -67 -108 50
-119 78 -8 74 -16 -15 -29 -53 -7 -75 -19 -75 -40 0 -7 20 -40 45 -74 25 -34
42 -61 37 -61 -4 0 -29 19 -56 43 -91 79 -110 70 -121 -55 -8 -87 -22 -86 -25
2 -4 108 -33 125 -108 63 -70 -57 -82 -66 -82 -60 0 3 6 12 13 19 44 46 87
108 87 126 0 29 -28 42 -89 42 -90 0 -91 14 -1 25 81 10 85 11 88 36 2 19 -10
41 -47 85 -27 32 -48 60 -46 62 2 2 31 -19 65 -48 91 -75 117 -63 119 52 2 84
15 89 24 8 5 -41 12 -82 16 -90z m209 -742 c65 -40 87 -147 43 -207 -47 -66
-113 -85 -184 -53 -66 29 -89 70 -84 146 3 56 6 62 47 98 37 33 49 38 93 38
33 0 61 -7 85 -22z m175 -690 c43 -21 93 -93 103 -145 9 -47 -14 -120 -49
-160 -42 -48 -96 -73 -157 -73 -140 0 -230 128 -190 271 12 43 86 115 127 125
15 3 33 7 38 9 20 7 91 -8 128 -27z m319 -728 c58 -21 124 -81 154 -140 23
-45 24 -169 2 -221 -23 -53 -82 -114 -133 -138 -66 -31 -179 -29 -244 4 -86
43 -151 146 -151 239 0 109 79 222 180 256 71 25 126 25 192 0z"/>
<path d="M16816 10854 c-284 -56 -506 -227 -641 -493 -81 -160 -103 -420 -51
-600 77 -266 239 -459 481 -572 129 -61 247 -82 410 -76 155 6 217 22 350 87
179 88 307 216 396 395 64 130 80 193 86 345 8 182 -11 284 -79 430 -88 188
-281 367 -478 441 -143 55 -331 72 -474 43z"/>
<path d="M14692 9028 c-9 -75 -53 -496 -61 -588 -28 -300 -33 -371 -46 -600
-19 -324 -19 -868 -1 -1072 33 -349 90 -540 221 -738 105 -158 237 -273 427
-369 125 -63 257 -109 420 -145 123 -26 121 -34 17 84 -298 337 -546 825 -709
1395 -163 568 -244 1167 -263 1950 -2 55 -4 92 -5 83z"/>
<path d="M18580 7284 c-238 -63 -380 -279 -341 -517 35 -213 231 -377 450
-377 98 0 220 51 300 126 95 87 141 195 141 329 0 216 -138 390 -351 440 -79
18 -128 18 -199 -1z"/>
<path d="M23250 7100 c0 -31 -76 -316 -116 -436 -103 -308 -231 -573 -420
-869 -24 -38 -44 -73 -44 -78 0 -16 141 68 221 130 188 150 317 388 368 687
29 167 29 586 0 586 -5 0 -9 -9 -9 -20z"/>
</g>
</svg>
